<svg width="35" height="28" viewBox="0 0 35 28" fill="none" xmlns="http://www.w3.org/2000/svg">
<path d="M14.2494 27.9961C10.1836 27.9961 6.79545 26.6584 4.07727 23.9751C1.35909 21.2958 0 17.9707 0 13.9961C0 10.0215 1.35909 6.69648 4.07727 4.01711C6.79545 1.33774 10.1874 -0.00387573 14.2494 -0.00387573C17.8481 -0.00387573 20.9415 1.0671 23.5295 3.21292C26.1175 5.35873 27.6986 8.10383 28.2653 11.4482H21.9752C21.3549 10.1685 20.3557 9.14001 18.9852 8.37061C17.6108 7.60121 16.0334 7.21457 14.2494 7.21457C11.9179 7.21457 9.97304 7.86025 8.40722 9.15547C6.84139 10.4507 6.05657 12.063 6.05657 14C6.05657 15.937 6.83756 17.5493 8.40722 18.8445C9.97304 20.1397 11.9217 20.7854 14.2494 20.7854C16.0373 20.7854 17.6146 20.3988 18.9852 19.6294C20.3557 18.86 21.3549 17.8315 21.9752 16.5518H28.2653C27.6948 19.9 26.1175 22.6451 23.5295 24.7871C20.9415 26.929 17.8481 28.0039 14.2494 28.0039V27.9961Z" fill="#F5DB69"/>
<path d="M34.3065 13.884C34.4137 13.9265 34.4137 14.0773 34.3065 14.1198L28.1006 16.6252L19.0081 20.2982L18.5832 20.4722L12.4768 22.939C10.9914 23.5382 9.32603 23.6078 7.83677 23.0163C7.82912 23.0163 7.81763 23.0085 7.80998 23.0047C6.63082 22.5291 5.62777 21.8486 4.76638 20.9826C4.36822 20.5882 4.02366 20.1629 3.72122 19.6874L8.3651 17.8161L8.61777 17.7117L9.20352 17.4758C12.362 16.2038 15.7501 15.4189 19.2149 15.1599L32.867 14.1353C33.0278 14.1237 33.0278 13.8879 32.867 13.8763L19.2608 12.8556C15.7769 12.5926 12.3696 11.8 9.19587 10.5164L8.63309 10.2883L8.36893 10.1839L3.72505 8.30101H3.71356C4.01601 7.82545 4.37588 7.38855 4.77404 6.98259C5.63543 6.11653 6.63848 5.44765 7.81763 4.98369L7.84443 4.97209C9.29158 4.39988 10.8957 4.40761 12.3352 4.99143L18.5908 7.52387L19.0426 7.70946L28.1198 11.3825L34.3142 13.8879L34.3065 13.884Z" fill="white"/>
</svg>
