<svg width="201" height="163" viewBox="0 0 201 163" fill="none" xmlns="http://www.w3.org/2000/svg">
<path d="M82.9289 162.955C59.2668 162.955 39.5483 155.17 23.729 139.554C7.90966 123.96 0 104.609 0 81.4775C0 58.3461 7.90966 38.9949 23.729 23.4014C39.5483 7.80798 59.2891 0 82.9289 0C103.873 0 121.876 6.23288 136.937 18.7211C151.999 31.2094 161.201 47.1854 164.499 66.6491H127.891C124.282 59.2011 118.467 53.2158 110.49 48.738C102.491 44.2602 93.3117 42.0101 82.9289 42.0101C69.3599 42.0101 58.0413 45.7678 48.9285 53.3058C39.8157 60.8437 35.2481 70.2268 35.2481 81.5C35.2481 92.7732 39.7934 102.156 48.9285 109.694C58.0413 117.232 69.3822 120.99 82.9289 120.99C93.334 120.99 102.514 118.74 110.49 114.262C118.467 109.784 124.282 103.799 127.891 96.3509H164.499C161.179 115.837 151.999 131.813 136.937 144.279C121.876 156.745 103.873 163 82.9289 163V162.955Z" fill="#F5DB69"/>
<path d="M199.658 80.8249C200.282 81.0724 200.282 81.95 199.658 82.1975L163.541 96.7784L110.624 118.155L108.151 119.167L72.6133 133.523C63.9684 137.011 54.2762 137.416 45.609 133.973C45.5645 133.973 45.4976 133.928 45.4531 133.906C38.5906 131.138 32.753 127.178 27.7399 122.137C25.4227 119.842 23.4174 117.367 21.6572 114.599L48.6838 103.709L50.1543 103.101L53.5633 101.729C71.9449 94.3257 91.6633 89.758 111.827 88.2504L191.281 82.2875C192.216 82.22 192.216 80.8474 191.281 80.7799L112.095 74.8396C91.8193 73.3095 71.9894 68.6967 53.5187 61.2262L50.2434 59.8986L48.7061 59.2911L21.6795 48.3329H21.6127C23.3728 45.5653 25.4672 43.0226 27.7844 40.66C32.7976 35.6197 38.6352 31.7269 45.4976 29.0268L45.6536 28.9592C54.0757 25.629 63.4113 25.674 71.7889 29.0718L108.196 43.8102L110.825 44.8902L163.652 66.2665L199.703 80.8474L199.658 80.8249Z" fill="white"/>
</svg>
