<svg width="66" height="68" viewBox="0 0 66 68" fill="none" xmlns="http://www.w3.org/2000/svg">
<path d="M35.5972 23.2319H32.7058C27.3801 23.2319 23.8812 27.0777 23.8812 32.0001V35.9999C23.8812 40.9222 27.3801 44.768 32.7058 44.768H35.5972C43.357 44.768 42.7475 36.7683 54.4655 36.7683C55.5757 36.767 56.6836 36.8702 57.7749 37.0764C58.1305 35.0412 58.1305 32.9588 57.7749 30.9235C56.6835 31.1288 55.5756 31.232 54.4655 31.2317C42.7436 31.2317 43.357 23.2319 35.5972 23.2319Z" fill="white"/>
<path d="M64.5072 39.9998C62.5117 38.5221 60.2104 37.5219 57.7769 37.0745C57.7769 37.0962 57.7769 37.114 57.7769 37.1337C57.5674 38.3131 57.2401 39.468 56.8001 40.5805C58.8104 40.8953 60.7176 41.6895 62.3641 42.8975C62.3641 42.9133 62.3543 42.9331 62.3484 42.9508C60.2294 49.8883 55.7194 55.8271 49.6379 59.6885C43.5563 63.5499 36.3066 65.0777 29.2056 63.9943C22.1047 62.9109 15.6237 59.2883 10.9398 53.7845C6.256 48.2806 3.68012 41.2607 3.68012 34C3.68012 26.7393 6.256 19.7194 10.9398 14.2155C15.6237 8.71171 22.1047 5.08907 29.2056 4.0057C36.3066 2.92234 43.5563 4.45011 49.6379 8.31151C55.7194 12.1729 60.2294 18.1117 62.3484 25.0492C62.3484 25.0669 62.3582 25.0867 62.3641 25.1025C60.7179 26.3106 58.8105 27.1043 56.8001 27.4175C57.2396 28.5316 57.5669 29.6877 57.7769 30.8682C57.7758 30.8867 57.7758 30.9051 57.7769 30.9236C60.2103 30.4769 62.5116 29.4773 64.5072 28.0002C66.4257 26.5642 66.0545 24.9425 65.7634 23.9825C63.3914 16.2042 58.3382 9.54439 51.522 5.21319C44.7058 0.881994 36.5789 -0.833123 28.6182 0.379504C20.6575 1.59213 13.3911 5.65203 8.13965 11.8214C2.88816 17.9909 0 25.8604 0 34C0 42.1396 2.88816 50.0091 8.13965 56.1786C13.3911 62.348 20.6575 66.4079 28.6182 67.6205C36.5789 68.8331 44.7058 67.118 51.522 62.7868C58.3382 58.4556 63.3914 51.7958 65.7634 44.0175C66.0545 43.0575 66.4257 41.4358 64.5072 39.9998Z" fill="white"/>
<path fill-rule="evenodd" clip-rule="evenodd" d="M56.7876 27.4176L56.7707 27.3741C56.4652 26.6069 56.1068 25.8624 55.6982 25.146L52.2891 19.1748C50.7517 16.483 48.5407 14.2478 45.8781 12.6937C43.2156 11.1397 40.1953 10.3216 37.121 10.3218H30.3008C27.2265 10.3216 24.2062 11.1397 21.5437 12.6937C18.8811 14.2478 16.6701 16.483 15.1327 19.1748L11.7236 25.146C10.1868 27.8381 9.37773 30.8917 9.37773 34C9.37773 37.1084 10.1868 40.162 11.7236 42.8541L15.1327 48.8253C16.6701 51.5171 18.8811 53.7523 21.5437 55.3063C24.2062 56.8604 27.2265 57.6784 30.3008 57.6783H37.121C40.1953 57.6784 43.2156 56.8604 45.8781 55.3063C48.5407 53.7523 50.7517 51.5171 52.2891 48.8253L55.6982 42.864C56.1068 42.1475 56.4652 41.403 56.7707 40.6359L56.7883 40.5924C56.5281 40.5487 56.2668 40.5122 56.0048 40.483C55.4937 40.4284 54.9799 40.4009 54.4655 40.4008C49.388 40.4008 47.4696 42.1113 45.267 44.0751L45.2365 44.1024C43.0992 46.0184 40.4383 48.4005 35.5972 48.4005H32.7058C29.2049 48.4005 26.0244 47.1166 23.7464 44.7858C21.5486 42.5364 20.3266 39.468 20.2968 36.1326C20.2964 36.0885 20.2962 36.0442 20.2962 36V32.0001C20.2962 28.6165 21.5211 25.4996 23.7463 23.2221C26.0243 20.8913 29.2068 19.6074 32.7057 19.6074H35.5971C40.4383 19.6074 43.0991 21.9896 45.2345 23.9055L45.2672 23.9347C47.4708 25.8978 49.3896 27.6072 54.4654 27.6072C55.1167 27.607 55.7671 27.563 56.4123 27.4755C56.5376 27.4579 56.6627 27.4386 56.7876 27.4176Z" fill="white"/>
</svg>
